<?xml version="1.0" encoding="UTF-8"?>
<svg version="1.1" xmlns="http://www.w3.org/2000/svg" width="168" height="167">
<path d="M0 0 C0.9215538 0.00222061 1.8431076 0.00444122 2.79258728 0.00672913 C3.83359085 0.00680466 4.87459442 0.00688019 5.94714355 0.00695801 C7.07941879 0.01211929 8.21169403 0.01728058 9.37828064 0.02259827 C10.53106003 0.02401321 11.68383942 0.02542816 12.87155151 0.02688599 C16.57043503 0.03250446 20.26925903 0.0450601 23.96812439 0.05775452 C26.46877456 0.06276714 28.96942567 0.06733045 31.47007751 0.07142639 C37.61528027 0.0824799 43.76044808 0.099236 49.90562439 0.12025452 C49.92875355 7.40447 49.9465424 14.68867762 49.95743656 21.97292233 C49.96266414 25.35497264 49.9697595 28.73699791 49.98106384 32.11903381 C49.99396706 36.00355229 49.99885363 39.88806048 50.00328064 43.77259827 C50.00844193 44.99236862 50.01360321 46.21213898 50.0189209 47.46887207 C50.01899643 48.58995865 50.01907196 49.71104523 50.01914978 50.86610413 C50.02137039 51.8587175 50.023591 52.85133087 50.02587891 53.87402344 C49.90562439 56.12025452 49.90562439 56.12025452 48.90562439 57.12025452 C47.35111451 57.22392479 45.79194184 57.25876973 44.23399353 57.26551819 C43.23948685 57.27189804 42.24498016 57.27827789 41.22033691 57.28485107 C40.13808334 57.2859639 39.05582977 57.28707672 37.94078064 57.28822327 C36.28531471 57.29321587 36.28531471 57.29321587 34.59640503 57.29830933 C32.25685545 57.30338337 29.91729861 57.30571751 27.57774353 57.30555725 C23.98704673 57.307743 20.39665734 57.32589186 16.80601501 57.34486389 C14.53843795 57.34779778 12.27085941 57.34978261 10.00328064 57.35072327 C8.9230513 57.35790878 7.84282196 57.3650943 6.7298584 57.37249756 C5.73219955 57.36942093 4.73454071 57.3663443 3.70664978 57.36317444 C2.38546898 57.36531197 2.38546898 57.36531197 1.03759766 57.36749268 C-1.09437561 57.12025452 -1.09437561 57.12025452 -3.09437561 55.12025452 C-3.34161377 52.83642578 -3.34161377 52.83642578 -3.33729553 49.95204163 C-3.34037216 48.87429977 -3.34344879 47.79655792 -3.34661865 46.68615723 C-3.33943314 45.51843277 -3.33224762 44.35070831 -3.32484436 43.14759827 C-3.32438614 41.95421341 -3.32392792 40.76082855 -3.32345581 39.53128052 C-3.32043067 37.00518298 -3.31253661 34.47908735 -3.30018616 31.95301819 C-3.28193574 28.07054594 -3.27967637 24.18831204 -3.27992249 20.30580139 C-3.27500731 17.85723161 -3.26917899 15.40866345 -3.26234436 12.96009827 C-3.26123154 11.79034958 -3.26011871 10.62060089 -3.25897217 9.41540527 C-3.24940239 7.80352074 -3.24940239 7.80352074 -3.23963928 6.15907288 C-3.23582748 5.2080217 -3.23201569 4.25697052 -3.22808838 3.27709961 C-3.04984099 0.40189181 -2.8762524 0.16514819 0 0 Z " fill="#F8C030" transform="translate(61.09437561035156,107.87974548339844)"/>
<path d="M0 0 C1.46634384 -0.00461494 1.46634384 -0.00461494 2.96231079 -0.00932312 C4.01550507 -0.0021376 5.06869934 0.00504791 6.15380859 0.01245117 C7.23479828 0.01290939 8.31578796 0.01336761 9.42953491 0.01383972 C11.71426491 0.01686133 13.99899287 0.0247449 16.28369141 0.03710938 C19.7951582 0.05538304 23.30636169 0.05761895 26.81787109 0.05737305 C29.03401922 0.0622875 31.25016556 0.0681155 33.46630859 0.07495117 C34.52355133 0.076064 35.58079407 0.07717682 36.67007446 0.07832336 C37.6413327 0.08470322 38.61259094 0.09108307 39.61328125 0.09765625 C40.47249176 0.10146805 41.33170227 0.10527985 42.21694946 0.10920715 C44.17724609 0.24291992 44.17724609 0.24291992 45.17724609 1.24291992 C45.27051325 2.8083904 45.29470191 4.37804765 45.29077148 5.94628906 C45.29069595 6.94725113 45.29062042 7.9482132 45.2905426 8.97950745 C45.28538132 10.06803513 45.28022003 11.15656281 45.27490234 12.27807617 C45.2734874 13.38646347 45.27207245 14.49485077 45.27061462 15.63682556 C45.26499643 19.19305061 45.25244084 22.74921375 45.23974609 26.30541992 C45.23473344 28.70971589 45.23017013 31.11401284 45.22607422 33.51831055 C45.21502109 39.42653496 45.19826526 45.33472302 45.17724609 51.24291992 C37.95075177 51.3187945 30.7243596 51.37144543 23.49755859 51.40771484 C21.03755861 51.4228298 18.57758569 51.44332219 16.11767578 51.46923828 C12.58798557 51.50550222 9.05865065 51.52261906 5.52880859 51.53588867 C4.42356842 51.55137253 3.31832825 51.56685638 2.17959595 51.58280945 C1.15868866 51.58303604 0.13778137 51.58326263 -0.9140625 51.58349609 C-2.26641495 51.59348885 -2.26641495 51.59348885 -3.64608765 51.60368347 C-4.36438751 51.4846315 -5.08268738 51.36557953 -5.82275391 51.24291992 C-7.92635627 48.08751637 -8.0767619 47.31713362 -8.09741211 43.71142578 C-8.10694412 42.79715317 -8.11647614 41.88288055 -8.126297 40.94090271 C-8.12538559 39.95646683 -8.12447418 38.97203094 -8.12353516 37.95776367 C-8.12782028 36.9457338 -8.13210541 35.93370392 -8.13652039 34.89100647 C-8.1422639 32.75172677 -8.14276379 30.61242754 -8.13842773 28.47314453 C-8.13526284 25.18968692 -8.15874415 21.90712578 -8.18408203 18.6237793 C-8.18635442 16.54760856 -8.1870588 14.4714354 -8.18603516 12.39526367 C-8.1952449 11.40880356 -8.20445465 10.42234344 -8.21394348 9.4059906 C-8.20771469 8.49487015 -8.2014859 7.58374969 -8.19506836 6.64501953 C-8.19569778 5.84132431 -8.19632721 5.03762909 -8.19697571 4.20957947 C-8.07348251 3.56058182 -7.94998932 2.91158417 -7.82275391 2.24291992 C-4.58855161 0.08678506 -3.72689022 -0.0061697 0 0 Z " fill="#E7B531" transform="translate(9.82275390625,54.757080078125)"/>
<path d="M0 0 C2.04931641 -0.36749268 2.04931641 -0.36749268 4.6015625 -0.35644531 C5.55595215 -0.35944641 6.5103418 -0.36244751 7.49365234 -0.36553955 C9.04366943 -0.34701935 9.04366943 -0.34701935 10.625 -0.328125 C11.68283691 -0.32625183 12.74067383 -0.32437866 13.83056641 -0.32244873 C16.07001897 -0.31571782 18.30945958 -0.30178289 20.54882812 -0.28125 C23.9857876 -0.25012869 27.42228868 -0.24028403 30.859375 -0.234375 C33.03125562 -0.22520402 35.20313155 -0.21482795 37.375 -0.203125 C38.92501709 -0.19675018 38.92501709 -0.19675018 40.50634766 -0.19024658 C41.4607373 -0.18063904 42.41512695 -0.17103149 43.3984375 -0.16113281 C44.24067871 -0.15430481 45.08291992 -0.14747681 45.95068359 -0.14044189 C48 0 48 0 50 1 C50.02526838 7.96003447 50.04283222 14.9200572 50.05493164 21.88012695 C50.05997341 24.24992312 50.06680665 26.61971615 50.07543945 28.98950195 C50.0875119 32.38754039 50.09322971 35.78553785 50.09765625 39.18359375 C50.10281754 40.25024765 50.10797882 41.31690155 50.11329651 42.4158783 C50.11337204 43.39681961 50.11344757 44.37776093 50.11352539 45.38842773 C50.115746 46.25668686 50.11796661 47.12494598 50.12025452 48.01951599 C50 50 50 50 49 51 C47.44000952 51.09846967 45.87559456 51.12798618 44.3125 51.12939453 C43.31476563 51.13254669 42.31703125 51.13569885 41.2890625 51.13894653 C40.20367187 51.1369223 39.11828125 51.13489807 38 51.1328125 C36.89398438 51.13376923 35.78796875 51.13472595 34.6484375 51.13571167 C32.30468692 51.13639367 29.96093447 51.13453804 27.6171875 51.13037109 C24.01558212 51.12502314 20.41410147 51.13031547 16.8125 51.13671875 C14.54166639 51.13605797 12.27083286 51.13477682 10 51.1328125 C8.91460937 51.13483673 7.82921875 51.13686096 6.7109375 51.13894653 C5.71320313 51.13579437 4.71546875 51.13264221 3.6875 51.12939453 C2.80449219 51.12859894 1.92148438 51.12780334 1.01171875 51.12698364 C-1 51 -1 51 -2 50 C-2.10340574 48.54273781 -2.13850293 47.08053962 -2.14526367 45.61962891 C-2.15483345 44.2228038 -2.15483345 44.2228038 -2.16459656 42.79776001 C-2.16570938 41.78426483 -2.1668222 40.77076965 -2.16796875 39.7265625 C-2.17129715 38.69187836 -2.17462555 37.65719421 -2.17805481 36.59115601 C-2.18312905 34.39703823 -2.18546298 32.2029127 -2.18530273 30.00878906 C-2.18748613 26.64635511 -2.20562822 23.28425069 -2.22460938 19.921875 C-2.22754377 17.79427196 -2.22952826 15.66666736 -2.23046875 13.5390625 C-2.23765427 12.52961578 -2.24483978 11.52016907 -2.25224304 10.48013306 C-2.24916641 9.542612 -2.24608978 8.60509094 -2.24291992 7.63916016 C-2.24434494 6.81388824 -2.24576996 5.98861633 -2.24723816 5.13833618 C-2 3 -2 3 0 0 Z " fill="#E8B632" transform="translate(114,55)"/>
<path d="M0 0 C0.9215538 0.00222061 1.8431076 0.00444122 2.79258728 0.00672913 C3.83359085 0.00680466 4.87459442 0.00688019 5.94714355 0.00695801 C7.07941879 0.01211929 8.21169403 0.01728058 9.37828064 0.02259827 C10.53106003 0.02401321 11.68383942 0.02542816 12.87155151 0.02688599 C16.57043503 0.03250446 20.26925903 0.0450601 23.96812439 0.05775452 C26.46877456 0.06276714 28.96942567 0.06733045 31.47007751 0.07142639 C37.61528027 0.0824799 43.76044808 0.099236 49.90562439 0.12025452 C49.93089329 6.93787346 49.94845683 13.75548041 49.96055603 20.57313538 C49.96559772 22.89442903 49.9724309 25.21571949 49.98106384 27.53700256 C49.99313664 30.86554246 49.99885418 34.19404054 50.00328064 37.52259827 C50.00844193 38.56737839 50.01360321 39.61215851 50.0189209 40.68859863 C50.01899643 41.6495192 50.01907196 42.61043976 50.01914978 43.60047913 C50.02137039 44.45097336 50.023591 45.30146759 50.02587891 46.17773438 C49.90562439 48.12025452 49.90562439 48.12025452 48.90562439 49.12025452 C47.31499129 49.21879874 45.72000961 49.24824145 44.12632751 49.24964905 C42.59969482 49.25437729 42.59969482 49.25437729 41.04222107 49.25920105 C39.93495667 49.25717682 38.82769226 49.25515259 37.68687439 49.25306702 C36.55866272 49.25402374 35.43045105 49.25498047 34.26805115 49.25596619 C31.87722213 49.25664819 29.48639128 49.25479249 27.0955658 49.25062561 C23.42153288 49.24527767 19.74762222 49.25056994 16.07359314 49.25697327 C13.75718662 49.25631249 11.44078017 49.25503133 9.12437439 49.25306702 C8.01710999 49.25509125 6.90984558 49.25711548 5.76902771 49.25920105 C4.75127258 49.25604889 3.73351746 49.25289673 2.68492126 49.24964905 C1.78414856 49.24885345 0.88337585 49.24805786 -0.04469299 49.24723816 C-2.09437561 49.12025452 -2.09437561 49.12025452 -3.09437561 48.12025452 C-3.19260305 46.6522016 -3.22235931 45.17947992 -3.22377014 43.70814514 C-3.22849838 42.30163696 -3.22849838 42.30163696 -3.23332214 40.86671448 C-3.23129791 39.84694519 -3.22927368 38.8271759 -3.22718811 37.77650452 C-3.22814484 36.73707703 -3.22910156 35.69764954 -3.23008728 34.62672424 C-3.23076924 32.42420898 -3.22891388 30.22169172 -3.2247467 28.0191803 C-3.21939869 24.63485733 -3.2246912 21.25066708 -3.23109436 17.86634827 C-3.23043358 15.73223339 -3.22915242 13.59811859 -3.22718811 11.46400452 C-3.22921234 10.44423523 -3.23123657 9.42446594 -3.23332214 8.37379456 C-3.23016998 7.43612244 -3.22701782 6.49845032 -3.22377014 5.53236389 C-3.22297455 4.70265076 -3.22217896 3.87293762 -3.22135925 3.01808167 C-3.04035801 0.31293732 -2.70455842 0.15528989 0 0 Z " fill="#EBB730" transform="translate(61.09437561035156,3.8797454833984375)"/>
<path d="M0 0 C2.06847265 -0.0022378 4.13645136 -0.02064636 6.20483398 -0.03930664 C8.18193359 -0.04220703 8.18193359 -0.04220703 10.19897461 -0.04516602 C11.97244263 -0.05132935 11.97244263 -0.05132935 13.78173828 -0.05761719 C16.78127775 0.18036557 18.26032872 0.77874381 20.84350586 2.18530273 C20.86877531 8.86050614 20.88633854 15.5356973 20.8984375 22.2109375 C20.90347911 24.48372865 20.91031223 26.75651653 20.91894531 29.02929688 C20.93101847 32.28833825 20.93673573 35.5473369 20.94116211 38.80639648 C20.94632339 39.82930283 20.95148468 40.85220917 20.95680237 41.90611267 C20.9568779 42.84701248 20.95695343 43.78791229 20.95703125 44.75732422 C20.95925186 45.59005356 20.96147247 46.4227829 20.96376038 47.28074646 C20.84350586 49.18530273 20.84350586 49.18530273 19.84350586 50.18530273 C18.30867616 50.27849723 16.76958503 50.30276074 15.23193359 50.29882812 C14.25099228 50.29875259 13.27005096 50.29867706 12.25938416 50.29859924 C11.19273026 50.29343796 10.12607635 50.28827667 9.02709961 50.28295898 C7.39781273 50.28083656 7.39781273 50.28083656 5.73561096 50.27867126 C2.25071511 50.27305322 -1.23411756 50.26049766 -4.71899414 50.24780273 C-7.07511301 50.24279006 -9.43123288 50.23822675 -11.78735352 50.23413086 C-17.57708878 50.22307792 -23.36678695 50.20632224 -29.15649414 50.18530273 C-30.31381583 47.87065935 -30.28322139 46.54212823 -30.28588867 43.96679688 C-30.28904083 43.09571793 -30.29219299 42.22463898 -30.29544067 41.3271637 C-30.29341644 40.38445114 -30.29139221 39.44173859 -30.28930664 38.47045898 C-30.29026337 37.50377792 -30.29122009 36.53709686 -30.29220581 35.54112244 C-30.2928871 33.49421117 -30.29103638 31.44729775 -30.28686523 29.40039062 C-30.28152206 26.26419217 -30.28680898 23.12813731 -30.29321289 19.99194336 C-30.29255199 18.00561492 -30.29127057 16.01928657 -30.28930664 14.03295898 C-30.29133087 13.09227066 -30.2933551 12.15158234 -30.29544067 11.18238831 C-30.29228851 10.3081572 -30.28913635 9.43392609 -30.28588867 8.53320312 C-30.28509308 7.7642421 -30.28429749 6.99528107 -30.28347778 6.20301819 C-30.15649414 4.18530273 -30.15649414 4.18530273 -29.15649414 1.18530273 C-19.42667579 0.42418903 -9.75868464 -0.00118301 0 0 Z " fill="#455058" transform="translate(88.156494140625,54.814697265625)"/>
<path d="M0 0 C0.91434814 -0.00953201 1.82869629 -0.01906403 2.77075195 -0.02888489 C3.76034912 -0.02797348 4.74994629 -0.02706207 5.76953125 -0.02612305 C6.78297607 -0.03040817 7.7964209 -0.0346933 8.84057617 -0.03910828 C10.98583223 -0.04485789 13.13110779 -0.04534721 15.27636719 -0.04101562 C18.56869548 -0.0378546 21.8601266 -0.06131109 25.15234375 -0.08666992 C27.23307178 -0.08894264 29.31380223 -0.08964654 31.39453125 -0.08862305 C32.38412842 -0.09783279 33.37372559 -0.10704254 34.39331055 -0.11653137 C35.30765869 -0.11030258 36.22200684 -0.10407379 37.1640625 -0.09765625 C38.37412964 -0.09860039 38.37412964 -0.09860039 39.60864258 -0.0995636 C40.25986084 0.0239296 40.9110791 0.14742279 41.58203125 0.2746582 C44.15531572 4.1345849 43.8700359 7.33524845 43.84765625 11.80981445 C43.85052643 13.06150673 43.85052643 13.06150673 43.85345459 14.33848572 C43.85481485 16.1011485 43.85112948 17.86382135 43.84277344 19.62646484 C43.83205808 22.33038713 43.84268086 25.03364705 43.85546875 27.73754883 C43.85414739 29.44913884 43.85158549 31.16072844 43.84765625 32.87231445 C43.85170471 33.68378433 43.85575317 34.49525421 43.85992432 35.33131409 C43.81195974 41.04472971 43.81195974 41.04472971 41.58203125 43.2746582 C39.60864258 43.52862549 39.60864258 43.52862549 37.1640625 43.53344727 C35.79254028 43.54290375 35.79254028 43.54290375 34.39331055 43.55255127 C33.40371338 43.54850281 32.41411621 43.54445435 31.39453125 43.5402832 C30.38108643 43.54219666 29.3676416 43.54411011 28.32348633 43.54608154 C26.17822013 43.54744411 24.03294572 43.54374267 21.88769531 43.53540039 C18.59551553 43.52470202 15.30388147 43.5352934 12.01171875 43.5480957 C9.93098837 43.54677412 7.85025834 43.54421176 5.76953125 43.5402832 C4.77993408 43.54433167 3.79033691 43.54838013 2.77075195 43.55255127 C1.85640381 43.54624695 0.94205566 43.53994263 0 43.53344727 C-0.80671143 43.53185608 -1.61342285 43.53026489 -2.44458008 43.52862549 C-4.41796875 43.2746582 -4.41796875 43.2746582 -6.41796875 41.2746582 C-6.61795199 38.35716685 -6.69771762 35.53663891 -6.68359375 32.6184082 C-6.6855072 31.76033569 -6.68742065 30.90226318 -6.68939209 30.01818848 C-6.69075419 28.20247098 -6.68705603 26.38674375 -6.67871094 24.57104492 C-6.66801166 21.78582971 -6.67860528 19.00125952 -6.69140625 16.21606445 C-6.69008466 14.45434427 -6.68752228 12.6926245 -6.68359375 10.9309082 C-6.68764221 10.09442749 -6.69169067 9.25794678 -6.69586182 8.39611816 C-6.64720952 2.42136755 -6.25195784 0.03570696 0 0 Z " fill="#444D56" transform="translate(121.41796875,109.725341796875)"/>
<path d="M0 0 C0.9215538 0.00222061 1.8431076 0.00444122 2.79258728 0.00672913 C3.83359085 0.00680466 4.87459442 0.00688019 5.94714355 0.00695801 C7.07941879 0.01211929 8.21169403 0.01728058 9.37828064 0.02259827 C10.53106003 0.02401321 11.68383942 0.02542816 12.87155151 0.02688599 C16.57043503 0.03250446 20.26925903 0.0450601 23.96812439 0.05775452 C26.46877456 0.06276714 28.96942567 0.06733045 31.47007751 0.07142639 C37.61528027 0.0824799 43.76044808 0.099236 49.90562439 0.12025452 C49.92875355 7.40447 49.9465424 14.68867762 49.95743656 21.97292233 C49.96266414 25.35497264 49.9697595 28.73699791 49.98106384 32.11903381 C49.99396706 36.00355229 49.99885363 39.88806048 50.00328064 43.77259827 C50.00844193 44.99236862 50.01360321 46.21213898 50.0189209 47.46887207 C50.01899643 48.58995865 50.01907196 49.71104523 50.01914978 50.86610413 C50.02137039 51.8587175 50.023591 52.85133087 50.02587891 53.87402344 C49.90562439 56.12025452 49.90562439 56.12025452 48.90562439 57.12025452 C47.35111451 57.22392479 45.79194184 57.25876973 44.23399353 57.26551819 C43.23948685 57.27189804 42.24498016 57.27827789 41.22033691 57.28485107 C40.13808334 57.2859639 39.05582977 57.28707672 37.94078064 57.28822327 C36.28531471 57.29321587 36.28531471 57.29321587 34.59640503 57.29830933 C32.25685545 57.30338337 29.91729861 57.30571751 27.57774353 57.30555725 C23.98704673 57.307743 20.39665734 57.32589186 16.80601501 57.34486389 C14.53843795 57.34779778 12.27085941 57.34978261 10.00328064 57.35072327 C8.9230513 57.35790878 7.84282196 57.3650943 6.7298584 57.37249756 C5.73219955 57.36942093 4.73454071 57.3663443 3.70664978 57.36317444 C2.38546898 57.36531197 2.38546898 57.36531197 1.03759766 57.36749268 C-1.09437561 57.12025452 -1.09437561 57.12025452 -3.09437561 55.12025452 C-3.34161377 52.83642578 -3.34161377 52.83642578 -3.33729553 49.95204163 C-3.34037216 48.87429977 -3.34344879 47.79655792 -3.34661865 46.68615723 C-3.33943314 45.51843277 -3.33224762 44.35070831 -3.32484436 43.14759827 C-3.32438614 41.95421341 -3.32392792 40.76082855 -3.32345581 39.53128052 C-3.32043067 37.00518298 -3.31253661 34.47908735 -3.30018616 31.95301819 C-3.28193574 28.07054594 -3.27967637 24.18831204 -3.27992249 20.30580139 C-3.27500731 17.85723161 -3.26917899 15.40866345 -3.26234436 12.96009827 C-3.26123154 11.79034958 -3.26011871 10.62060089 -3.25897217 9.41540527 C-3.24940239 7.80352074 -3.24940239 7.80352074 -3.23963928 6.15907288 C-3.23582748 5.2080217 -3.23201569 4.25697052 -3.22808838 3.27709961 C-3.04984099 0.40189181 -2.8762524 0.16514819 0 0 Z M-1.09437561 2.12025452 C-1.09437561 19.28025452 -1.09437561 36.44025452 -1.09437561 54.12025452 C15.07562439 54.12025452 31.24562439 54.12025452 47.90562439 54.12025452 C47.90562439 36.96025452 47.90562439 19.80025452 47.90562439 2.12025452 C31.73562439 2.12025452 15.56562439 2.12025452 -1.09437561 2.12025452 Z " fill="#A0863C" transform="translate(61.09437561035156,107.87974548339844)"/>
<path d="M0 0 C16.83 0 33.66 0 51 0 C51 15.18 51 30.36 51 46 C34.17 46 17.34 46 0 46 C0 30.82 0 15.64 0 0 Z M2 2 C1.90731001 3.35094982 1.88252674 4.70667091 1.88647461 6.06079102 C1.88659546 6.93368774 1.88671631 7.80658447 1.88684082 8.70593262 C1.89195679 9.62926392 1.89707275 10.55259521 1.90234375 11.50390625 C1.90335083 12.3482019 1.90435791 13.19249756 1.90539551 14.06237793 C1.9106443 17.22909902 1.92460544 20.39580081 1.9375 23.5625 C1.958125 30.636875 1.97875 37.71125 2 45 C17.84 45 33.68 45 50 45 C50 30.48 50 15.96 50 1 C43.32474596 0.97709596 36.6496272 0.95716736 29.97436523 0.94506836 C27.70157409 0.94002675 25.4287862 0.93319363 23.15600586 0.92456055 C19.89696449 0.91248739 16.63796583 0.90677013 13.37890625 0.90234375 C12.35599991 0.89718246 11.33309357 0.89202118 10.27919006 0.88670349 C9.33829025 0.88662796 8.39739044 0.88655243 7.42797852 0.88647461 C6.59524918 0.884254 5.76251984 0.88203339 4.90455627 0.87974548 C2.98966726 0.78995168 2.98966726 0.78995168 2 2 Z " fill="#ECC14F" transform="translate(59,5)"/>
</svg>
